<?xml version="1.0" encoding="UTF-8" standalone="no"?>
<svg
   xmlns:dc="http://purl.org/dc/elements/1.1/"
   xmlns:cc="http://creativecommons.org/ns#"
   xmlns:rdf="http://www.w3.org/1999/02/22-rdf-syntax-ns#"
   xmlns:svg="http://www.w3.org/2000/svg"
   xmlns="http://www.w3.org/2000/svg"
   width="475.17969mm"
   height="54.551411mm"
   viewBox="0 0 475.17969 54.551411"
   version="1.1"
   id="svg8">
  <defs
     id="defs2" />
  <metadata
     id="metadata5">
    <rdf:RDF>
      <cc:Work
         rdf:about="">
        <dc:format>image/svg+xml</dc:format>
        <dc:type
           rdf:resource="http://purl.org/dc/dcmitype/StillImage" />
        <dc:title></dc:title>
      </cc:Work>
    </rdf:RDF>
  </metadata>
  <g
     id="layer1"
     transform="translate(150.15243,-161.24591)">
    <path
       style="fill:#00c4ba;fill-opacity:1;stroke:none;stroke-width:0.264583"
       d="m 89.769333,182.44912 c -0.0836,-6.75455 0.96917,-14.25628 -0.26458,-20.90209 -1.47585,0 -5.30992,-0.90516 -6.34259,0.4232 -0.51038,0.65657 -0.27199,1.97525 -0.27199,2.7518 v 7.40834 28.31041 10.84792 c 0,1.09379 -0.39159,3.24749 0.85407,3.8092 1.59359,0.71835 5.68272,0.64321 5.97509,-1.42928 1.13717,-8.06026 -2.6797,-18.84521 2.41114,-25.92784 3.84757,-5.35305 13.164607,-7.72768 18.427167,-2.81014 2.69346,2.5154 3.51102,6.4053 3.55336,9.95389 0.0503,4.32012 0,8.64394 0,12.96458 0,1.50337 -0.76729,6.2156 0.61383,7.13635 0.78581,0.52414 2.1934,0.27199 3.09033,0.27199 0.71173,0 1.88384,0.20426 2.48709,-0.27199 0.87841,-0.69559 0.42333,-3.22422 0.42333,-4.22593 v -12.43542 c 0,-4.56194 0.35454,-9.19585 -1.50283,-13.49374 -3.73327,-8.63812 -15.05479,-10.52725 -23.103417,-7.05485 -2.57439,1.11098 -4.12591,3.10673 -6.35,4.6736 m 83.957577,-17.71968 c -0.99483,0.66305 -0.61383,2.67705 -0.61383,3.69676 0,0.98107 -0.32808,2.72732 0.27252,3.56817 0.78317,1.09881 5.73088,1.09855 6.78656,0.39317 0.99484,-0.66305 0.61384,-2.67705 0.61384,-3.69676 0,-1.04563 0.29898,-2.7051 -0.31221,-3.62003 -0.71438,-1.06918 -5.73088,-1.01891 -6.74688,-0.34131 m -317.32008,31.74259 c -4.96982,1.58697 -6.32835,8.44947 -1.85208,11.37708 v 0.26459 c -1.3153,0.7493 -6.48824,4.95432 -4.07368,6.87176 0.60007,0.47651 1.7744,0.27199 2.48618,0.27199 0.86823,0 2.52108,0.31062 3.24318,-0.27199 0.57534,-0.46408 0.46924,-1.47744 0.76232,-2.109 0.75123,-1.61925 2.42155,-2.79691 4.19658,-2.8993 4.46643,-0.25744 9.01939,-0.0114 13.49376,-0.0114 3.4917,0 7.17232,-0.29369 10.58333,0.62283 1.19989,0.32253 2.44343,1.08823 2.90195,2.29156 0.24209,0.63579 0.11668,1.64914 0.69718,2.10529 1.17766,0.92577 4.72678,0.27199 6.19045,0.27199 0.85037,-4.64953 -1.79572,-8.91196 -6.35,-10.14942 -6.3918,-1.73646 -13.53582,-0.96308 -20.10833,-0.96308 -2.34448,0 -9.91386,1.12712 -10.09989,-2.64478 -0.0655,-1.32768 1.48063,-2.43205 2.69176,-2.44713 3.34386,-0.0413 6.83716,1.38774 10.31855,1.38774 7.13898,0 18.43034,-1.25386 19.53048,-10.31875 0.36804,-3.03424 -0.46487,-5.36522 -1.27423,-8.20208 3.81079,0 5.55016,0.28152 7.97189,-2.91042 0.43577,-0.57441 1.95422,-1.93384 1.50654,-2.75087 -0.47916,-0.87392 -3.34036,-0.42413 -4.18677,-0.42413 h -12.96458 c -8.95297,0 -26.71985,-2.38866 -28.75365,10.05417 -0.22572,1.38086 -0.23013,3.11256 -0.0304,4.49792 0.35063,2.43231 2.18554,3.98065 3.11946,6.08541 m 59.795841,-20.26047 c -3.817673,0.51965 -7.801239,1.4269 -10.847916,3.94335 -7.516545,6.20792 -9.182895,19.61039 -3.645959,27.6942 5.573713,8.13779 18.561844,9.77345 27.193875,6.06161 3.220244,-1.38457 6.195219,-3.58775 8.079052,-6.59077 0.615685,-0.98134 1.839119,-2.89878 0.757238,-3.97034 -4.717257,-4.67254 -6.800057,2.15609 -10.42379,4.15211 -6.63575,3.65495 -17.481814,2.43575 -20.735396,-5.20886 -0.377825,-0.88794 -1.355989,-3.23876 -0.336814,-3.96134 1.372394,-0.97313 5.137944,-0.27199 6.78471,-0.27199 h 18.25625 c 1.469496,0 6.149975,0.75803 7.136342,-0.4609 1.184804,-1.46447 0.264318,-6.57066 -0.125413,-8.27035 -2.28256,-9.96103 -12.492037,-14.42349 -22.092179,-13.11672 m 86.2541659,21.84797 h 15.8750001 11.90625 c 1.282435,0 3.566054,0.43048 4.678363,-0.31194 1.126595,-0.75168 0.651404,-3.5695 0.50112,-4.71514 -0.597429,-4.54872 -1.397264,-8.56986 -4.915958,-11.88244 -7.270221,-6.84503 -21.9363391,-6.95669 -29.3666331,-0.24236 -3.976423,3.59304 -5.813425,9.24798 -5.821892,14.50605 -0.0069,4.28678 0.610394,8.81406 3.115204,12.43541 5.770827,8.34311 18.7602821,9.58506 27.5764631,5.89201 3.095889,-1.29699 5.782468,-3.60151 7.608623,-6.42117 0.532077,-0.82153 1.458648,-2.08121 1.275291,-3.12526 -0.228864,-1.30254 -4.205816,-3.09774 -5.341143,-2.41961 -0.848255,0.50667 -1.340909,1.8616 -1.928813,2.63419 -1.065212,1.40044 -2.424377,2.48787 -3.995208,3.27871 -8.012113,4.0349 -21.0788251,0.99404 -21.1666671,-9.62845 M 55.373504,176.21128 c -2.855913,0.37518 -5.503069,0.6014 -8.202084,1.74387 -6.806406,2.88105 -9.733227,13.17148 -2.645833,17.65194 5.864225,3.70734 13.355373,2.45877 19.84375,3.97272 2.685258,0.62653 5.561278,2.40744 4.590788,5.62345 -0.6612,2.19155 -2.823636,3.2975 -4.855372,3.9206 -4.430712,1.35863 -11.117791,0.49953 -14.815608,-2.30743 -1.560777,-1.18454 -2.50481,-4.43654 -4.074054,-5.15673 -1.238779,-0.56833 -4.0894,0.58076 -5.147998,1.27264 -2.693458,1.76001 2.736586,7.56391 4.193911,8.64103 5.623454,4.15581 13.936927,4.90008 20.637499,3.54806 2.791882,-0.5633 5.946772,-1.5613 8.009202,-3.62373 4.03834,-4.03834 4.49739,-11.86603 -0.33734,-15.48844 -5.22738,-3.91663 -13.190011,-2.98212 -19.313528,-4.05739 -2.588154,-0.45455 -6.707981,-1.82642 -5.980377,-5.26944 0.4699,-2.2225 2.625725,-3.50547 4.65746,-4.07591 4.021402,-1.12897 9.946217,-0.94615 13.49375,1.45495 1.675605,1.13426 2.681285,4.17274 4.292605,4.90616 1.10304,0.50192 4.2291,-0.65034 5.19324,-1.28719 2.33071,-1.54014 -1.41341,-5.84624 -2.68605,-6.99082 -4.23175,-3.80551 -11.302739,-5.207 -16.853961,-4.47834 m 78.052076,21.84823 c 5.44777,-0.20479 10.94846,0 16.40417,0 H 161.736 c 1.12183,0 3.47398,0.44 4.33916,-0.42413 0.86255,-0.86333 0.42598,-3.21759 0.42334,-4.33837 -0.008,-5.05566 -1.99761,-10.1092 -6.08542,-13.21858 -7.82373,-5.9518 -22.52133,-5.59462 -29.32377,1.84547 -3.3364,3.64966 -4.06665,8.02719 -4.61962,12.69603 -0.53446,4.53152 0.50535,9.73243 3.18558,13.49375 5.83142,8.18806 19.177,9.47182 27.84739,5.4266 2.90513,-1.35493 5.42661,-3.56632 7.2099,-6.22035 0.53975,-0.80222 1.4896,-2.12805 1.27529,-3.16045 -0.26987,-1.28693 -4.29419,-3.0771 -5.43454,-2.38442 -0.92604,0.56171 -1.48167,2.01771 -2.14577,2.85406 -1.16946,1.4724 -2.65906,2.5601 -4.34446,3.3856 -7.94544,3.88753 -20.54754,0.12727 -20.6375,-9.95521 m 129.11667,0.26458 c 2.67758,-0.63738 5.72558,-0.26458 8.46666,-0.26458 h 15.34584 c 2.39183,0 6.50081,0.79481 8.69156,-0.19632 1.397,-0.63156 0.83873,-3.58325 0.83344,-4.83076 -0.0265,-5.47476 -2.67229,-10.96989 -7.40834,-13.84459 -7.09877,-4.31006 -18.55787,-4.41272 -25.4,0.50827 -8.0301,5.77717 -9.93245,19.33098 -4.66195,27.62382 5.66208,8.90693 18.59756,10.0076 27.6807,6.477 3.22263,-1.25228 6.0325,-3.55309 7.87665,-6.477 0.54769,-0.86757 1.4949,-2.06243 1.28587,-3.16045 -0.26193,-1.36869 -4.14337,-3.09854 -5.35781,-2.38442 -2.21721,1.30466 -3.09033,4.46405 -5.65679,5.81342 -6.02721,3.16891 -15.11035,2.48973 -19.43894,-3.17897 -1.39171,-1.82509 -1.70127,-3.93382 -2.25689,-6.08542 M -47.284829,182.97828 c -0.486304,-1.39488 0.09022,-3.98674 -0.801158,-5.13291 -0.882121,-1.13454 -5.520002,-1.03717 -5.96318,0.39925 -0.767556,2.48788 -0.114829,6.10129 -0.114829,8.70241 v 18.78542 6.87916 c 0.0016,0.77947 -0.136525,1.87352 0.613304,2.37385 0.979753,0.65378 5.516034,0.73236 5.9182,-0.56092 2.865967,-9.21597 -4.065852,-23.01055 5.903913,-29.5656 3.000375,-1.97247 5.954184,-0.87762 8.956675,-1.89733 1.300692,-0.44185 1.121304,-4.44817 0.673365,-5.50439 -0.625475,-1.47346 -3.058848,-1.12157 -4.338373,-1.08955 -4.280165,0.10636 -8.926248,2.75299 -10.847917,6.61061 m 26.9875,-0.26458 -0.264584,-5.29167 c -1.248304,0 -4.98131,-0.62653 -5.813424,0.42413 -1.011502,1.27741 -0.271992,5.38771 -0.271992,6.98421 v 19.04999 c 0,2.81464 0.109802,5.65547 -0.0344,8.46667 -0.04736,0.92313 -0.278871,2.48656 0.867304,2.82628 1.428486,0.42333 5.439833,0.61727 5.742517,-1.24381 1.364985,-8.39708 -2.371725,-18.24302 2.604558,-25.92017 1.337998,-2.06428 3.286919,-3.5941 5.636683,-4.34445 2.5683113,-0.82021 4.2669359,-0.35031 5.8851269,-2.80353 0.596636,-0.90435 2.481527,-2.40189 2.085182,-3.62373 -0.416984,-1.28588 -3.26099,-0.87868 -4.266142,-0.87366 -5.6530869,0.0273 -8.1171519,3.08108 -12.1708329,6.34974 m 216.693743,-1.05833 c 0,-0.97208 0.42598,-3.28878 -0.42333,-3.96135 -1.17739,-0.93212 -5.75204,-0.68659 -5.91079,1.05596 -0.63765,7.01463 -0.0159,14.37931 -0.0159,21.42622 0,4.47066 -0.71172,9.60517 0.0397,14.0073 0.25136,1.48485 5.46365,1.70842 6.30238,0.64982 1.10066,-1.388 0.27252,-6.03223 0.27252,-7.77796 0,-8.12482 -2.27013,-23.17326 9.26041,-24.55756 1.24619,-0.14949 2.74373,-0.17674 3.96875,0.10874 9.69169,2.2606 6.61459,17.63104 6.61459,24.97799 0,1.62507 -0.78582,6.31693 0.67733,7.40093 0.77523,0.57255 2.3839,0.27252 3.29142,0.27199 0.65352,-2.7e-4 1.46314,0.10848 2.07698,-0.15955 0.96837,-0.4228 0.83079,-1.61051 0.83343,-2.48629 v -6.61458 c 0,-8.06079 -2.26748,-21.67758 8.73125,-23.46193 14.39863,-2.33574 11.37709,16.75395 11.37709,25.5786 0,1.8833 -0.46832,4.48601 0.0847,6.28967 0.40217,1.31763 5.45042,1.32318 6.26798,0.39317 1.45257,-1.651 0.52652,-6.98976 0.52652,-9.06409 0,-8.08249 1.87855,-20.87536 -5.29166,-26.58586 -6.00604,-4.78102 -19.62415,-3.98251 -22.75417,4.09628 -2.23308,-1.14089 -3.48192,-3.92907 -5.82083,-5.28664 -4.36827,-2.53604 -11.23686,-2.2733 -15.61042,0.0807 -1.73302,0.93292 -2.91042,2.50085 -4.49792,3.61845 m 112.7125,1.05833 c 0,-1.28455 0.48684,-3.82402 -0.27252,-4.9112 -0.79904,-1.14697 -5.38427,-0.83846 -5.91873,0.44239 -0.8837,2.11984 -0.15875,5.88274 -0.15875,8.17298 v 19.04999 c 0,2.46037 -0.82285,6.70508 0.1958,8.95668 0.57414,1.26497 5.02708,1.25783 6.06954,0.56092 1.33085,-0.88689 0.61383,-5.17367 0.61383,-6.60718 0,-5.90841 -0.92604,-12.6529 1.3044,-18.25625 1.53987,-3.87297 4.83393,-6.05552 8.74977,-6.90959 1.1721,-0.25532 4.2545,0.30639 5.01914,-0.65829 0.47625,-0.60139 0.27252,-1.77376 0.27252,-2.48628 0,-3.42662 -1.10595,-3.91425 -4.49791,-3.68036 -5.2414,0.36089 -7.4639,3.52187 -11.37709,6.32619 m -135.04333,-5.01968 c -0.62177,0.49292 -0.42333,1.68143 -0.42333,2.37385 v 6.87916 19.31458 c 0,2.25293 -0.74348,6.0923 0.15875,8.16293 0.56356,1.29037 5.04031,1.23402 6.07748,0.52096 1.58485,-1.0922 0.64293,-7.16068 0.64293,-8.94847 v -18.78541 c 0,-2.62123 0.63765,-6.2021 -0.11377,-8.71564 -0.4392,-1.46209 -5.25727,-1.65947 -6.34206,-0.80196 m -305.22333,3.24697 c 4.12803,-0.58843 10.34098,-0.27252 13.62208,2.62202 5.82189,5.13556 -0.83715,10.68123 -6.21374,11.51334 -4.74848,0.73502 -10.66192,0.67443 -14.5378,-2.57704 -6.47933,-5.43586 1.9558,-10.82066 7.12946,-11.55832 m 47.095834,1.06495 c 4.229629,-0.68607 9.763125,0.0735 12.940771,3.13505 0.90461,0.87153 4.537868,6.28888 2.10132,7.01357 -1.75207,0.52123 -4.221956,0.0841 -6.046258,0.0841 h -12.7 c -1.415521,0 -5.062273,0.65484 -6.186487,-0.27199 -0.924984,-0.76253 0.281781,-3.14061 0.675481,-3.96029 1.7272,-3.59701 5.430573,-5.38691 9.215173,-6.00048 M 28.386004,192.2387 H 2.4568369 c 0.286809,-13.90174 25.8124851,-14.09303 25.9291671,0 m 130.968746,0 h -25.92917 c 0.12436,-13.86523 25.92652,-14.11208 25.92917,0 m 129.38125,0 h -10.84792 -10.84792 c -0.9525,0 -3.2676,0.42122 -4.01108,-0.27199 -0.55827,-0.51885 -0.0556,-1.77298 0.12171,-2.37384 0.66675,-2.26352 2.19604,-4.22752 4.15396,-5.52847 7.41891,-4.93025 21.21958,-2.12276 21.43125,8.1743 z"
       id="path24" />
  </g>
</svg>
